<svg xmlns="http://www.w3.org/2000/svg" viewBox="0 0 500 500" width="500" height="500">
  <style>
    .st0{fill:#7366ff;}
    .st1{fill:#FFFFFF;}
    .st2{fill:#f8f9fa;}
    .st3{fill:#ba895d;}
  </style>
  <circle class="st0" cx="250" cy="250" r="200"/>
  <path class="st1" d="M250,60c104.6,0,190,85.4,190,190s-85.4,190-190,190S60,354.6,60,250S145.4,60,250,60 M250,40
    C134.1,40,40,134.1,40,250s94.1,210,210,210s210-94.1,210-210S365.9,40,250,40L250,40z"/>
  <path class="st2" d="M217,170h-50c-5.5,0-10,4.5-10,10v140c0,5.5,4.5,10,10,10h50c5.5,0,10-4.5,10-10V180
    C227,174.5,222.5,170,217,170z"/>
  <path class="st2" d="M333,170h-50c-5.5,0-10,4.5-10,10v140c0,5.5,4.5,10,10,10h50c5.5,0,10-4.5,10-10V180
    C343,174.5,338.5,170,333,170z"/>
  <path class="st3" d="M217,170h-40v160h40c5.5,0,10-4.5,10-10V180C227,174.5,222.5,170,217,170z"/>
  <path class="st3" d="M333,170h-40v160h40c5.5,0,10-4.5,10-10V180C343,174.5,338.5,170,333,170z"/>
  <path class="st0" d="M267,250c0,9.4-7.6,17-17,17s-17-7.6-17-17s7.6-17,17-17S267,240.6,267,250z"/>
</svg> 