<svg xmlns="http://www.w3.org/2000/svg" viewBox="0 0 500 500" width="500" height="500">
  <style>
    .st0{fill:#f73164;}
    .st1{fill:#FFFFFF;}
    .st2{fill:#24695c;}
    .st3{fill:#ba895d;}
    .st4{fill:#f8f9fa;}
  </style>
  <circle class="st0" cx="250" cy="250" r="200"/>
  <path class="st1" d="M250,60c104.6,0,190,85.4,190,190s-85.4,190-190,190S60,354.6,60,250S145.4,60,250,60 M250,40
    C134.1,40,40,134.1,40,250s94.1,210,210,210s210-94.1,210-210S365.9,40,250,40L250,40z"/>
  <path class="st2" d="M250,150c-55.2,0-100,44.8-100,100s44.8,100,100,100s100-44.8,100-100S305.2,150,250,150z M290,320h-80v-20h80
    V320z M290,280h-80v-20h80V280z M290,240h-80v-20h80V240z"/>
  <path class="st3" d="M330,120l-60,60l-60-60H330z"/>
  <path class="st4" d="M250,180c-38.7,0-70,31.3-70,70c0,38.7,31.3,70,70,70s70-31.3,70-70C320,211.3,288.7,180,250,180z M270,300
    h-40v-20h40V300z M270,260h-40v-20h40V260z M270,220h-40v-20h40V220z"/>
  <path class="st0" d="M190,120l60,60l-60,60V120z"/>
  <path class="st0" d="M310,240l-60-60l60-60V240z"/>
</svg> 