<svg xmlns="http://www.w3.org/2000/svg" viewBox="0 0 500 500" width="500" height="500">
  <style>
    .st0{fill:#f8d62b;}
    .st1{fill:#FFFFFF;}
    .st2{fill:#f73164;}
    .st3{fill:#ba895d;}
    .st4{fill:#24695c;}
  </style>
  <circle class="st0" cx="250" cy="250" r="200"/>
  <path class="st1" d="M250,60c104.6,0,190,85.4,190,190s-85.4,190-190,190S60,354.6,60,250S145.4,60,250,60 M250,40
    C134.1,40,40,134.1,40,250s94.1,210,210,210s210-94.1,210-210S365.9,40,250,40L250,40z"/>
  <path class="st2" d="M250,150c-55.2,0-100,44.8-100,100s44.8,100,100,100s100-44.8,100-100S305.2,150,250,150z M340,260H160v-20h180
    V260z"/>
  <path class="st3" d="M250,180c-38.7,0-70,31.3-70,70c0,38.7,31.3,70,70,70s70-31.3,70-70C320,211.3,288.7,180,250,180z M300,260
    h-100v-20h100V260z"/>
  <path class="st4" d="M250,120c-5.5,0-10,4.5-10,10v40c0,5.5,4.5,10,10,10s10-4.5,10-10v-40C260,124.5,255.5,120,250,120z"/>
  <path class="st4" d="M250,300c-5.5,0-10,4.5-10,10v40c0,5.5,4.5,10,10,10s10-4.5,10-10v-40C260,304.5,255.5,300,250,300z"/>
</svg> 